<svg width="66" height="91" viewBox="0 0 66 91" fill="none" xmlns="http://www.w3.org/2000/svg">
<path fill-rule="evenodd" clip-rule="evenodd" d="M11.3062 4.41388V6.54545H1.19587C0.535407 6.54545 0 7.08271 0 7.74545V70.8C0 71.4627 0.535407 72 1.19587 72H16.933C15.7444 69.7523 15.0821 67.8461 14.7571 66.5H5.18208C4.6317 66.5 4.18553 66.0523 4.18553 65.5V13.5C4.18553 12.9477 4.6317 12.5 5.18208 12.5H45.4429C45.9933 12.5 46.4394 12.9477 46.4394 13.5V35.6245C48.0882 36.0812 49.483 36.9135 50.625 37.8849V7.74545C50.625 7.08271 50.0896 6.54545 49.4291 6.54545H39.3187V4.41387C39.3187 3.86159 38.8726 3.41388 38.3222 3.41388H30.8936C30.5443 3.41388 30.2219 3.2262 30.0279 2.93473C26.6204 -2.18515 22.4485 0.459231 20.9004 2.87043C20.6938 3.1922 20.3517 3.41388 19.9703 3.41388H12.3028C11.7524 3.41388 11.3062 3.86159 11.3062 4.41388ZM25.6115 4.9C26.4921 4.9 27.2059 4.18365 27.2059 3.3C27.2059 2.41634 26.4921 1.7 25.6115 1.7C24.7308 1.7 24.017 2.41634 24.017 3.3C24.017 4.18365 24.7308 4.9 25.6115 4.9Z" fill="url(#paint0_linear_268_3391)"/>
<path d="M45.9277 72.9574L50.2245 69.3888L52.8773 72.5829L48.5805 76.1515L45.9277 72.9574Z" fill="url(#paint1_linear_268_3391)"/>
<path fill-rule="evenodd" clip-rule="evenodd" d="M6.75 16.7454C6.75 16.1956 7.20538 15.75 7.76712 15.75H42.8579C43.4196 15.75 43.875 16.1956 43.875 16.7454V35.1489C39.9865 33.367 35.5406 32.6384 30.9732 33.2823C18.51 35.0395 9.86203 46.3513 11.6575 58.548C11.9468 60.5129 12.4895 62.381 13.2485 64.125H7.76712C7.20538 64.125 6.75 63.6793 6.75 63.1296V16.7454Z" fill="url(#paint2_linear_268_3391)"/>
<path d="M55.4985 53.955C57.0694 64.8594 49.5032 74.9726 38.5988 76.5436C27.6944 78.1145 17.5811 70.5482 16.0102 59.6438C14.4393 48.7394 22.0055 38.6262 32.9099 37.0552C43.8143 35.4843 53.9276 43.0506 55.4985 53.955Z" fill="url(#paint3_linear_268_3391)"/>
<path d="M50.5481 54.6518C51.7263 62.8301 46.0516 70.415 37.8733 71.5932C29.695 72.7714 22.1101 67.0967 20.9319 58.9184C19.7537 50.7401 25.4284 43.1552 33.6067 41.977C41.785 40.7988 49.3699 46.4735 50.5481 54.6518Z" fill="white"/>
<path d="M61.5267 87.0666C59.1561 89.0405 56.1341 89.3191 54.7768 87.689L48.4574 80.0994C47.1002 78.4693 47.9216 75.5478 50.2922 73.574C52.6628 71.6001 55.6848 71.3214 57.0421 72.9515L63.3615 80.5411C64.7187 82.1712 63.8973 85.0928 61.5267 87.0666Z" fill="url(#paint4_linear_268_3391)"/>
<path fill-rule="evenodd" clip-rule="evenodd" d="M39.4306 66.375C39.8949 66.375 40.2713 66.0208 40.2713 65.5838V61.8255H44.1593C44.6236 61.8255 45 61.4713 45 61.0343V53.6168C45 53.1798 44.6236 52.8255 44.1593 52.8255H40.2713V49.1662C40.2713 48.7292 39.8949 48.375 39.4306 48.375H31.5494C31.0852 48.375 30.7088 48.7292 30.7088 49.1662V52.8255H26.7157C26.2514 52.8255 25.875 53.1798 25.875 53.6168V61.0343C25.875 61.4713 26.2514 61.8255 26.7157 61.8255H30.7088V65.5838C30.7088 66.0208 31.0852 66.375 31.5494 66.375H39.4306Z" fill="url(#paint5_linear_268_3391)"/>
<defs>
<linearGradient id="paint0_linear_268_3391" x1="24.5394" y1="11.4165" x2="22.5667" y2="80.6813" gradientUnits="userSpaceOnUse">
<stop stop-color="#008BDA"/>
<stop offset="1" stop-color="#3DE8FF" stop-opacity="0.5"/>
<stop offset="1" stop-color="#95D7FD" stop-opacity="0.5"/>
</linearGradient>
<linearGradient id="paint1_linear_268_3391" x1="48.0761" y1="71.1731" x2="50.7289" y2="74.3672" gradientUnits="userSpaceOnUse">
<stop stop-color="#000AFF"/>
<stop offset="1" stop-color="#D8E1FF"/>
</linearGradient>
<linearGradient id="paint2_linear_268_3391" x1="24.7456" y1="23.4205" x2="23.5311" y2="69.9638" gradientUnits="userSpaceOnUse">
<stop stop-color="#008BDA" stop-opacity="0.5"/>
<stop offset="1" stop-color="#3DE8FF" stop-opacity="0.5"/>
<stop offset="1" stop-color="#95D7FD" stop-opacity="0.25"/>
</linearGradient>
<linearGradient id="paint3_linear_268_3391" x1="32.9099" y1="37.0552" x2="38.5988" y2="76.5436" gradientUnits="userSpaceOnUse">
<stop stop-color="#000AFF"/>
<stop offset="1" stop-color="#D8E1FF"/>
</linearGradient>
<linearGradient id="paint4_linear_268_3391" x1="51.6171" y1="83.8942" x2="60.2018" y2="76.7463" gradientUnits="userSpaceOnUse">
<stop stop-color="#000AFF"/>
<stop offset="1" stop-color="#D8E1FF"/>
</linearGradient>
<linearGradient id="paint5_linear_268_3391" x1="35.49" y1="66.375" x2="35.49" y2="48.375" gradientUnits="userSpaceOnUse">
<stop stop-color="#FF4C4C"/>
<stop offset="1" stop-color="#FFBABA"/>
</linearGradient>
</defs>
</svg>
